<mxfile host="65bd71144e">
    <diagram id="qB-X7xxnxHoPQCaKss06" name="Page-1">
        <mxGraphModel dx="1144" dy="787" grid="0" gridSize="10" guides="1" tooltips="1" connect="1" arrows="1" fold="1" page="1" pageScale="1" pageWidth="850" pageHeight="1100" background="#ffffff" math="0" shadow="0">
            <root>
                <mxCell id="0"/>
                <mxCell id="1" parent="0"/>
                <mxCell id="2" value="Enter Memory Signal / Prompt / Key / Hint" style="rounded=0;whiteSpace=wrap;html=1;fillColor=#f5f5f5;fontColor=#333333;strokeColor=#666666;" vertex="1" parent="1">
                    <mxGeometry x="210" y="144.11" width="462" height="60" as="geometry"/>
                </mxCell>
                <mxCell id="3" value="Enter Memory / Solution / Answer" style="rounded=0;whiteSpace=wrap;html=1;fillColor=#f5f5f5;fontColor=#333333;strokeColor=#666666;" vertex="1" parent="1">
                    <mxGeometry x="210" y="216.11" width="463" height="60" as="geometry"/>
                </mxCell>
                <mxCell id="4" value="" style="shape=cylinder3;whiteSpace=wrap;html=1;boundedLbl=1;backgroundOutline=1;size=15;rotation=89;" vertex="1" parent="1">
                    <mxGeometry x="217" y="104" width="22.55" height="40.11" as="geometry"/>
                </mxCell>
                <mxCell id="5" value="+" style="rounded=1;whiteSpace=wrap;html=1;fillColor=#f5f5f5;fontColor=#333333;strokeColor=#666666;" vertex="1" parent="1">
                    <mxGeometry x="210" y="288.11" width="463" height="22" as="geometry"/>
                </mxCell>
                <mxCell id="6" value="Create" style="rounded=1;whiteSpace=wrap;html=1;fillColor=#f5f5f5;fontColor=#333333;strokeColor=#666666;" vertex="1" parent="1">
                    <mxGeometry x="534" y="335.11" width="138" height="39" as="geometry"/>
                </mxCell>
            </root>
        </mxGraphModel>
    </diagram>
</mxfile>